<svg width="620" height="680" viewBox="0 0 620 680" fill="none" xmlns="http://www.w3.org/2000/svg">
<path d="M612.08 202.344C610.328 202.12 608.342 202.358 606.849 201.607C596.46 196.369 586.268 190.726 575.809 185.642C570.292 182.976 564.497 180.595 558.579 179.143C544.932 175.798 531.133 173.115 517.394 170.134C511.405 168.827 505.355 167.691 499.489 165.94C497.255 165.272 494.973 163.436 493.591 161.515C491.026 157.967 489.099 153.96 486.487 149.422C486.599 152.135 486.813 154.146 486.746 156.153C486.59 160.385 484.694 161.83 480.497 161.303C477.745 160.957 474.964 160.836 471.738 160.569C476.487 164.713 480.478 168.78 485.037 172.08C507.021 187.976 523.663 208.856 538.895 230.779C553.321 251.563 562.139 275.07 567.335 299.823C569.178 308.585 570.26 317.52 571.509 326.395C572.291 331.934 570.315 333.454 564.892 332.228C561.505 331.464 558.03 330.717 554.589 330.654C539.262 330.322 524.669 326.258 510.263 321.707C502.696 319.328 495.463 315.527 492.482 307.297C491.593 304.837 491.476 301.801 491.945 299.2C493.108 292.747 494.844 286.405 496.281 279.988C496.682 278.21 496.816 276.371 496.278 274.276C495.375 275.86 494.675 277.635 493.511 278.997C489.551 283.655 485.51 288.249 481.321 292.701C479.298 294.841 477.053 294.447 475.047 292.285C465.888 282.357 456.855 272.306 447.449 262.591C443.245 258.246 441.286 253.779 443.141 247.839C443.926 245.306 444.346 242.65 445.057 239.457C441.735 242.011 439.5 246.201 433.908 243.35C435.228 246.029 436.221 247.86 437.07 249.756C446.887 271.59 456.753 293.407 466.449 315.298C471.49 326.672 476.899 337.952 480.937 349.687C486.968 367.161 491.934 384.989 492.859 403.674C493.009 406.757 494.286 409.824 495.216 412.839C501.391 432.913 508.142 452.826 513.666 473.07C518.34 490.234 521.922 507.719 525.44 525.174C531.841 556.942 533.056 589.325 535.91 621.484C537.164 635.604 536.848 649.867 536.999 664.076C537.068 670.423 536.73 670.992 530.737 670.5C511.274 668.883 492.044 672.168 472.691 672.54C462.004 672.752 451.291 671.749 440.593 671.252C438.376 671.148 437.26 670.278 436.746 667.675C433.748 652.662 436.244 637.714 436.985 622.76C437.414 614.077 439.277 605.446 439.449 596.767C439.659 585.268 439.072 573.74 438.397 562.262C437.667 549.81 436.72 537.37 435.395 524.975C432.813 500.989 429.765 477.051 427.183 453.074C425.253 435.089 424.247 416.993 421.923 399.071C419.435 379.845 417.371 360.468 409.967 342.176C403.983 327.408 398.664 312.373 392.904 297.513C391.23 293.204 389.059 289.086 386.813 284.237C380.414 291.203 372.55 291.696 364.748 291.431C358.713 304.578 348.874 313.261 334.692 312.993C319.139 312.697 303.479 309.977 296.808 292.279C291.36 277.793 294.801 258.594 305.061 248.986C296.702 246.973 290.265 242.524 285.247 235.975C277.797 245.477 269.575 253.984 260.029 261.148C259.821 261.304 259.606 261.484 259.399 261.648C253.966 266.148 248.429 266.003 242.79 261.214C243.253 262.585 243.524 263.508 243.883 264.397C247.151 272.485 245.379 277.466 238.946 283.199C233.005 288.49 227.753 294.56 222.483 300.542C220.581 302.705 219.545 302.39 218.235 300.403C215.599 296.438 213.028 292.439 209.703 288.726C210.862 293.615 211.564 298.672 213.284 303.343C215.884 310.371 214.447 316.24 210.313 322.206C197.381 340.875 181.132 356.29 164.265 371.311C153.791 380.648 144.555 391.385 134.786 401.501C130.056 406.403 126.536 405.875 124.241 399.351C122.56 394.582 121.488 389.554 120.553 384.557C118.038 371.261 114.904 357.998 113.612 344.564C112.472 332.658 112.171 320.352 113.836 308.55C116.166 292.178 120.062 275.985 127.147 260.737C140.339 232.356 161.99 211.199 185.723 191.896C198.836 181.224 212.935 171.906 228.586 165.185C229.298 164.876 229.953 164.44 230.458 163.216C219.559 163.826 208.623 164.066 197.763 165.151C188.721 166.065 179.766 167.912 170.798 169.493C169.272 169.757 167.877 170.76 166.404 171.402C161.656 173.445 158.848 172.044 158.105 166.915C157.434 162.341 157.149 157.721 155.946 153.155C153.009 158.917 147.136 170.435 147.136 170.435C145.977 171.088 142.212 173.624 140.96 173.997C134.415 175.945 127.743 177.485 121.282 179.674C107.726 184.271 94.2723 189.204 80.7675 193.969C79.6375 194.372 78.4418 194.696 77.2512 194.81C63.1561 196.111 51.1496 203.078 38.6827 208.851C33.2335 211.38 27.5347 213.372 21.9607 215.629C17.4999 217.434 13.0975 219.383 8.58626 221.044C7.15195 221.573 5.43296 221.364 3.84768 221.484C4.00134 219.871 3.61815 217.903 4.40629 216.707C12.0748 205.067 19.205 192.975 27.8841 182.134C47.9565 157.101 72.3864 136.974 100.385 121.227C105.522 118.332 110.536 115.222 115.666 112.319C130.814 103.719 147.234 98.2835 164.133 94.8545C180.929 91.4431 198.019 89.4373 215.016 87.183C220.291 86.4857 225.711 86.9623 231.068 86.9485C233.541 86.9366 236.016 87.0293 238.49 87.0738C238.606 86.7579 238.706 86.4261 238.822 86.1022C234.476 83.0722 230.248 79.8793 225.768 77.0687C220.784 73.9352 215.673 70.9405 210.414 68.2864C207.492 66.7984 204.228 65.6135 200.999 65.1693C184.725 62.8935 168.415 60.9083 152.111 58.8424C147.172 58.2137 145.559 55.3129 148.002 51.0317C148.85 49.537 149.907 48.0232 151.237 46.9806C161.975 38.655 173.213 30.9423 186.562 27.5974C201.748 23.7907 217.14 20.8026 232.445 17.4372C233.481 17.2126 234.5 16.9157 235.536 16.6589L245.937 15.6369C249.807 15.8141 253.676 15.967 257.538 16.1684C270.131 16.8142 281.925 19.6226 291.3 28.8387C292.068 29.5848 292.797 30.3717 293.533 31.1262C299.763 24.1473 300.709 23.2957 307.729 28.4618C315.962 34.5124 323.383 41.7995 330.58 49.122C337.645 56.3095 343.285 64.6698 347.217 74.0621C347.617 75.0068 348.226 75.868 348.681 76.6589C352.186 69.5426 355.067 62.1776 359.233 55.6316C365.029 46.5 371.401 37.6581 378.214 29.2448C389.072 15.8582 403.887 9.22113 420.661 7.16349C436.986 5.14465 453.389 3.01188 469.831 2.43335C484.115 1.93468 498.109 4.75932 510.271 13.3788C513.429 15.6206 517.092 17.1219 520.338 19.2416C524.738 22.1258 524.634 24.9469 520.277 27.806C520.054 27.9543 519.864 28.1826 519.615 28.2588C503.569 33.8424 491.011 45.5217 476.114 53.1348C473.979 54.2294 471.862 55.4526 469.982 56.9462C460.474 64.4806 460.506 64.5123 448.296 63.5628C450.942 64.9259 452.877 65.6066 454.401 66.8088C455.86 67.9557 456.9 69.6403 458.113 71.0888C456.646 72.1252 455.287 73.4179 453.678 74.1423C447.852 76.7892 441.761 78.9003 436.125 81.8989C432.44 83.8459 429.384 86.976 426.182 89.4718C427.009 91.5462 427.62 93.1001 428.373 94.9823C429.938 94.5889 431.616 94.2018 433.261 93.7347C460.095 85.9715 487.313 84.1077 514.751 89.5717C527.581 92.1233 539.663 97.4813 550.286 105.02C564.841 115.344 578.067 127.356 589.269 141.411C597.443 151.668 601.449 163.959 605.943 175.978C608.516 182.852 610.433 189.986 612.389 197.071C612.832 198.684 612.207 200.586 612.08 202.352L612.08 202.344ZM353.998 86.6029C358.712 97.16 363.024 107.811 364.748 119.339C365.453 124.057 366.343 128.749 367.022 132.727C384.892 119.6 402.714 106.507 420.56 93.4047C420.146 93.2093 419.726 93.1268 419.432 92.8653C418.053 91.6851 416.706 90.4561 415.359 89.2432C416.841 88.134 418.274 86.9127 419.838 85.9312C421.962 84.6112 424.235 83.571 426.35 82.2431C428.481 80.8988 430.331 78.9947 432.596 77.9949C438.943 75.1793 445.432 72.6999 452.216 69.9504C450.974 69.3402 449.837 68.7123 448.654 68.214C443.458 66.0584 438.208 64.0163 433.075 61.7148C432.086 61.27 431.494 59.9091 430.723 58.9779C431.739 58.4877 432.757 57.5706 433.756 57.5801C439.911 57.6111 446.181 57.2214 452.189 58.2373C456.76 59.0084 459.811 57.7232 463.099 55.073C466.507 52.3084 470.06 49.5497 473.938 47.5515C487.707 40.4706 499.078 29.2113 515.361 24.8971C511.624 22.7443 508.696 21.3934 506.139 19.5376C495.628 11.9251 483.379 9.50197 471.067 9.86711C452.337 10.4388 433.6 12.2028 414.992 14.4564C403.621 15.831 392.912 20.0798 384.503 28.5084C373.006 40.0112 364.236 53.4398 357.126 67.972C355.381 71.5502 354.061 75.4444 353.223 79.3397C352.741 81.6185 353.048 84.4497 353.998 86.5868L353.998 86.6029ZM258.926 90.8435C275.144 94.7555 289.13 103.663 302.58 113.286C319.57 125.452 333.696 140.585 347.116 156.461C349.403 159.166 352.438 161.265 355.842 164.276C357.406 159.992 358.854 157.095 359.526 154.016C364.275 132.235 360.798 111.437 351.675 91.3657C351.359 90.6614 350.85 90.0405 350.374 89.411C348.739 87.2517 346.632 85.3249 345.502 82.9326C340.787 72.8429 336.048 62.7937 328.251 54.5938C323.448 49.5484 318.876 44.2579 313.716 39.6205C310.141 36.402 305.725 34.1061 301.527 31.2834C300.645 32.6658 300.162 33.2931 299.818 33.991C297.345 38.9493 294.888 39.533 290.456 36.1256C288.965 34.9954 287.696 33.5639 286.181 32.4743C283.267 30.3739 280.475 27.8851 277.225 26.5147C267.7 22.4809 257.509 21.381 247.327 21.997C229 23.1106 210.845 25.559 193.099 30.6277C180.496 34.2356 168.605 39.1704 158.384 47.5691C156.855 48.824 155.614 50.4211 153.892 52.2266C162.151 53.4433 169.448 54.4001 176.683 55.6075C186.697 57.2658 196.697 59.0854 206.681 60.8971C207.723 61.0833 208.768 61.5031 209.678 62.0456C219.074 67.7087 228.595 73.1847 237.77 79.1894C244.546 83.6259 250.535 88.8071 258.951 90.8351L258.926 90.8435ZM329.938 205.974C329.515 215.583 340.27 226.64 350.893 224.777C360.857 223.028 370.27 219.435 378.464 213.442C380.688 211.815 382.469 208.574 382.977 205.795C384.014 200.149 383.011 194.388 379.263 189.842C375.031 184.708 370.48 179.772 365.565 175.292C361.042 171.161 354.928 171.766 350.098 175.333C345.731 178.562 340.96 181.234 336.387 184.185C335.852 184.523 335.198 184.943 334.988 185.47C332.395 192.162 328.646 198.589 329.946 205.966L329.938 205.974ZM244.05 158.86C253.684 158.792 263.352 158.321 272.942 157.455C289.677 155.938 306.069 159.122 322.595 160.436C329.499 160.988 336.381 161.701 343.278 162.341C343.523 162.031 343.761 161.73 344.006 161.428C340.01 156.46 336.34 151.188 331.947 146.612C325.664 140.058 319.339 133.351 312.146 127.897C300.945 119.409 289.511 110.972 277.216 104.264C262.972 96.472 247.461 92.3725 230.741 92.0931C209.234 91.7225 188.345 95.6367 167.335 98.9646C152.137 101.386 137.715 106.809 124.12 113.686C110.534 120.571 97.4476 128.625 84.8278 137.171C59.0858 154.61 36.7394 175.64 19.9019 202.084C17.5553 205.784 15.0381 209.39 12.0341 213.864C18.7697 211.712 24.7748 210.287 30.3712 207.909C39.8506 203.871 49.0217 199.137 58.4172 194.876C61.0582 193.677 63.9357 192.676 66.7987 192.336C79.4488 190.83 91.4378 187.086 103.004 181.963C114.994 176.656 127.547 173.46 140.379 171.138C141.592 170.91 144.923 169.508 144.923 169.508C144.923 169.508 145.32 163.074 146.25 159.967C147.44 156.01 149.295 152.237 151.052 148.481C152.373 145.674 154.41 143.421 157.907 143.99C161.436 144.575 161.882 147.517 162.166 150.421C162.697 155.876 163.244 161.33 163.784 166.88C190.23 159.05 217.145 159.06 244.066 158.868L244.05 158.86ZM289.083 195.268C293.883 189.14 299.115 182.715 307.027 181.142C315.373 179.473 324.072 179.394 331.109 183.537C336.165 178.34 341.014 173.355 345.887 168.337C309.202 163.516 272.546 161.803 235.537 163.987C236.488 167.857 233.364 169.078 230.809 170.662C209.683 183.691 189.156 197.493 171.293 214.954C155.98 229.912 141.791 245.74 131.774 264.794C127.87 272.214 124.771 280.09 121.897 287.97C120.364 292.19 120.005 296.867 119.216 301.35C116.911 314.491 116.001 327.732 118.135 340.937C120.518 355.733 123.448 370.441 126.233 385.167C126.958 388.991 128.011 392.746 129.075 397.161C138.086 382.021 148.492 369.181 160.879 357.939C166.437 352.904 171.757 347.606 177.404 342.657C185.836 335.251 194.324 327.893 203.042 320.813C209.212 315.801 210.343 312.707 208.376 304.897C205.922 295.193 203.749 285.421 201.584 275.64C201.395 274.813 201.905 273.34 202.56 272.968C203.231 272.579 204.654 272.897 205.395 273.418C206.339 274.073 207.031 275.174 207.675 276.188C212.045 283.052 216.367 289.941 220.737 296.862C223.749 293.451 227.433 290.311 229.825 286.385C233.986 279.55 237.595 272.335 235.205 263.734C233.505 257.612 232.181 251.38 230.794 245.173C230.656 244.555 231.026 243.462 231.521 243.164C231.977 242.9 233.013 243.255 233.575 243.642C234.201 244.076 234.591 244.86 235.084 245.489C239.451 251.072 243.779 256.689 248.202 262.223C250.139 264.652 251.804 264.482 253.966 261.945C260.357 254.408 266.993 247.093 273.653 239.786C275.715 237.524 277.869 235.003 280.525 233.732C283.533 232.294 283.486 230.676 282.9 228.058C280.214 216.247 281.435 205.039 289.091 195.252L289.083 195.268ZM324.832 238.619C325.412 235.284 325.51 231.544 326.776 228.255C328.499 223.799 329.193 219.994 325.926 215.861C324.662 214.244 324.558 211.579 324.292 209.343C323.474 202.419 324.488 195.766 328.772 188.453C322.98 187.942 318.189 187.512 313.389 187.075C309.453 186.729 306.168 188.01 302.989 190.385C290.971 199.309 286.43 211.105 288.305 225.828C289.488 235.14 292.268 237.943 301.656 238.104C309.262 238.226 316.854 238.446 324.84 238.619L324.832 238.619ZM354.346 290.206C335.151 283.204 326.551 269.134 324.731 249.335C320.28 250.681 316.433 252.083 312.459 252.978C307.015 254.202 303.669 257.352 302.515 262.727C301.565 267.163 300.349 271.652 300.173 276.142C299.598 290.844 305.118 303.065 321.477 305.106C331.776 306.39 341.67 303.176 349.702 296.001C351.507 294.388 352.788 292.186 354.346 290.214L354.346 290.206ZM383.236 226.278C366.787 238.022 350.158 237.315 333.197 225.559C330.439 235.863 330.494 245.682 331.67 255.566C332.809 265.184 337.573 272.51 346.12 276.929C353.759 280.877 362.505 282.941 370.019 278.32C389.284 266.462 393.765 246.699 383.227 226.278L383.236 226.278ZM425.43 237.633C424.981 236.697 424.37 235.675 423.556 235.099C413.683 228.162 405.517 219.556 398.264 209.987C397.492 208.975 396.25 208.333 395.915 208.064C394.007 212.506 392.204 216.52 390.572 220.604C390.152 221.642 389.954 222.941 390.147 224.018C391.083 229.072 392.259 234.081 393.227 239.135C394.51 245.843 395.583 252.594 396.945 259.269C398.083 264.867 397.58 270.151 395.255 275.373C394.67 276.671 394.528 278.51 394.95 279.865C398.472 290.963 401.913 302.094 405.883 313.033C413.279 333.419 420.296 353.876 424.684 375.192C428.699 394.726 429.491 414.709 434.439 434.173C437.978 448.115 438.974 462.762 440.272 477.171C441.784 494.115 442.459 511.128 443.376 528.129C444.237 544.051 445.582 559.982 445.573 575.909C445.566 595.84 444.488 615.778 443.723 635.696C443.319 646.078 442.6 656.456 442.02 666.938C472.106 671.114 501.2 665.832 530.957 662.932L523.786 590.073C518.709 591.082 514.178 592.493 509.583 592.786C498.492 593.48 487.369 593.65 476.257 594.03C475.726 594.054 475.115 594.135 474.668 593.932C473.874 593.582 473.181 593.028 472.441 592.555C472.993 591.734 473.388 590.664 474.146 590.162C474.992 589.602 476.157 589.391 477.203 589.312C482.812 588.883 488.417 588.237 494.032 588.228C502.91 588.203 511.714 588.163 520.284 585.291C522.537 584.533 523.176 583.629 522.99 581.336C522.417 574.658 522.286 567.933 521.593 561.281C520.61 551.886 519.289 542.52 518.059 532.798C515.191 533.283 513.118 533.708 511.012 533.988C496.539 535.916 482.083 537.867 467.6 539.666C465.365 539.94 462.209 540.671 461.791 537.438C461.683 536.659 465.354 534.816 467.483 534.383C481.531 531.559 495.641 529.009 509.724 526.338C511.917 525.919 514.093 525.404 517.056 524.765C513.875 509.392 510.771 494.356 507.46 478.373C497.109 480.055 487 481.83 476.847 483.316C466.533 484.82 456.176 486.091 445.817 487.289C444.603 487.436 443.252 486.513 441.965 486.081C442.029 485.54 442.102 484.991 442.166 484.443C444.176 484.139 446.185 483.828 448.195 483.541C466.09 480.967 483.986 478.418 501.881 475.836C505.691 475.289 506.907 473.564 505.776 469.488C500.837 451.829 496.219 434.068 491.457 416.35C491.151 415.219 490.659 414.13 490.055 412.488C487.705 413.142 485.796 413.734 483.869 414.197C475.031 416.34 466.21 418.556 457.319 420.458C455.794 420.786 453.99 419.749 452.308 419.347C452.357 418.838 452.406 418.322 452.455 417.822C453.804 417.488 455.161 417.162 456.509 416.812C466.109 414.408 475.709 412.028 485.3 409.584C487.547 409.004 489.2 407.956 488.699 405.088C486.634 393.348 485.404 381.419 482.441 369.918C479.896 360.054 475.417 350.67 471.638 340.663C467.269 342.693 463.402 343.796 460.373 346.04C452.396 351.973 443.201 353.976 433.731 355.323C432.517 355.494 431.203 354.941 429.935 354.718C436.778 351.613 443.746 349.9 450.246 347.09C456.803 344.263 462.884 340.34 469.461 336.731C461.439 318.102 453.418 299.554 445.486 280.971C444.635 278.962 443.464 278.769 441.718 279.48C439.235 280.499 436.811 281.662 434.27 282.489C429.94 283.889 425.568 285.162 421.145 286.241C420.222 286.472 419.033 285.628 417.965 285.281C418.733 284.367 419.334 283.069 420.319 282.612C422.367 281.664 424.673 281.275 426.797 280.471C431.988 278.502 437.138 276.429 442.424 274.346C441.756 272.712 441.387 271.702 440.938 270.742C435.79 259.7 430.634 248.65 425.438 237.625L425.43 237.633ZM459.039 160.368C453.271 159.824 447.693 157.408 441.978 156.074C438.34 155.225 434.57 154.168 430.924 154.35C413.93 155.235 396.958 156.425 379.995 157.761C376.173 158.066 372.371 159.233 368.691 160.407C366.67 161.049 364.928 162.54 362.564 163.945C375.139 171.116 384.546 179.768 389.716 192.3C391.937 197.657 394.309 201.795 399.816 205.437C408.732 211.332 415.803 219.994 423.686 227.468C427.689 231.26 431.684 235.068 435.806 238.73C438.042 240.72 440.141 240.447 441.752 237.717C442.782 235.978 443.771 234.191 445.071 232.69C445.91 231.711 447.296 231.199 448.438 230.482C448.755 231.782 449.484 233.157 449.309 234.392C448.49 240.084 447.331 245.724 446.528 251.423C446.346 252.723 446.647 254.547 447.473 255.453C457.756 266.678 468.165 277.78 478.51 288.867C484.316 285.383 486.878 282.671 491.238 274.463C494.256 268.795 496.821 262.893 499.783 257.203C500.323 256.172 501.887 255.673 502.98 254.932C503.384 256.095 504.021 257.245 504.151 258.436C504.262 259.449 503.787 260.536 503.585 261.586C500.764 276.434 497.944 291.274 494.921 307.124C515.684 321.064 540.4 322.773 564.824 325.421C565.035 324.951 565.217 324.715 565.222 324.481C565.232 323.538 565.194 322.604 565.164 321.67C564.173 292.949 554.885 266.532 540.656 242.145C532.278 227.775 521.802 214.377 510.689 201.964C500.124 190.139 487.579 180.067 475.742 169.421C470.975 165.132 466.186 161.037 459.055 160.368L459.039 160.368ZM606.897 196.088C602.916 185.544 599.123 175.715 595.475 165.827C591.624 155.378 586.273 145.854 578.041 138.224C569.009 129.865 560.055 121.368 550.548 113.579C539.068 104.168 525.539 98.4852 511.1 95.5543C490.674 91.3977 470.017 91.8525 449.6 95.494C438.182 97.5217 426.38 99.7323 415.993 104.532C398.549 112.593 383.599 124.847 369.548 137.983C368.618 138.85 367.637 140.073 367.476 141.243C366.915 145.28 366.717 149.367 366.366 153.473C370.722 152.748 374.768 151.755 378.856 151.453C391.546 150.487 404.264 149.793 416.965 148.979C426.768 148.345 436.536 148.073 445.873 151.989C450.68 153.997 455.494 155.973 460.339 157.86C461.538 158.326 462.946 158.756 464.176 158.577C469.957 157.776 475.71 156.765 482.188 155.704C481.62 149.928 480.862 143.833 480.539 137.715C480.471 136.322 481.883 134.859 482.62 133.431C483.883 134.411 485.625 135.119 486.328 136.39C488.786 140.841 490.844 145.516 493.094 150.067C496.016 155.969 498.866 160.834 506.978 161.899C518.448 163.408 529.651 167.079 540.909 170.064C555.781 173.988 570.607 178.041 584.297 185.446C591.305 189.242 598.721 192.276 606.897 196.096L606.897 196.088Z" fill="black"/>
<path d="M344.016 161.436C343.77 161.738 343.533 162.039 343.288 162.349C336.391 161.709 329.508 160.996 322.604 160.444C306.078 159.131 289.686 155.946 272.952 157.463C263.354 158.329 253.693 158.8 244.059 158.868C217.139 159.068 190.224 159.051 163.777 166.881C163.229 161.33 162.682 155.876 162.159 150.422C161.875 147.518 161.429 144.576 157.9 143.991C154.404 143.421 152.366 145.667 151.046 148.481C149.288 152.237 147.434 156.018 146.243 159.967C145.314 163.074 144.916 169.508 144.916 169.508C144.916 169.508 141.593 170.91 140.372 171.138C127.549 173.46 114.988 176.656 102.997 181.963C91.4313 187.087 79.4422 190.831 66.7921 192.337C63.9372 192.676 61.0597 193.677 58.4106 194.876C49.0232 199.138 39.8439 203.864 30.3647 207.909C24.7683 210.287 18.7632 211.712 12.0276 213.865C15.0234 209.382 17.5487 205.784 19.8954 202.085C36.7329 175.64 59.0874 154.618 84.8213 137.171C97.4409 128.617 110.527 120.563 124.114 113.686C137.709 106.809 152.13 101.386 167.329 98.9648C188.339 95.6369 209.227 91.7227 230.734 92.0933C247.454 92.3727 262.966 96.4722 277.21 104.264C289.505 110.98 300.938 119.409 312.139 127.897C319.341 133.351 325.658 140.058 331.941 146.612C336.334 151.188 340.012 156.46 343.999 161.428L344.016 161.436Z" fill="#009345"/>
<mask id="mask0_1816_19111" style="mask-type:luminance" maskUnits="userSpaceOnUse" x="12" y="92" width="333" height="122">
<path d="M344.016 161.436C343.77 161.738 343.533 162.039 343.288 162.349C336.391 161.709 329.508 160.996 322.604 160.444C306.078 159.131 289.686 155.946 272.952 157.463C263.354 158.329 253.693 158.8 244.059 158.868C217.139 159.068 190.224 159.051 163.777 166.881C163.229 161.33 162.682 155.876 162.159 150.422C161.875 147.518 161.429 144.576 157.9 143.991C154.404 143.421 152.366 145.667 151.046 148.481C149.288 152.237 147.434 156.018 146.243 159.967C145.314 163.074 144.916 169.508 144.916 169.508C144.916 169.508 141.593 170.91 140.372 171.138C127.549 173.46 114.988 176.656 102.997 181.963C91.4313 187.087 79.4422 190.831 66.7921 192.337C63.9372 192.676 61.0597 193.677 58.4106 194.876C49.0232 199.138 39.8439 203.864 30.3647 207.909C24.7683 210.287 18.7632 211.712 12.0276 213.865C15.0234 209.382 17.5487 205.784 19.8954 202.085C36.7329 175.64 59.0874 154.618 84.8213 137.171C97.4409 128.617 110.527 120.563 124.114 113.686C137.709 106.809 152.13 101.386 167.329 98.9648C188.339 95.6369 209.227 91.7227 230.734 92.0933C247.454 92.3727 262.966 96.4722 277.21 104.264C289.505 110.98 300.938 119.409 312.139 127.897C319.341 133.351 325.658 140.058 331.941 146.612C336.334 151.188 340.012 156.46 343.999 161.428L344.016 161.436Z" fill="white"/>
</mask>
<g mask="url(#mask0_1816_19111)">
<path d="M353.355 165.997C351.772 156.901 328.342 156.695 321.866 156.234C308.455 155.278 295.593 152.179 282.27 151.181C264.084 149.82 245.515 153.74 227.418 154.625C214.538 155.256 187.015 159.952 174.713 154.444C168.177 151.519 166.319 137.923 161.33 136.643C155.783 135.217 141.006 152.721 137.039 156.888C122.661 171.969 103.93 175.779 84.7597 183.125C69.4102 189.004 55.1306 195.875 40.759 203.617C26.3874 211.36 -0.966995 220.452 -3.28311 240.029C52.5963 229.191 108.342 217.461 165.527 212.759C189.079 210.82 212.892 208.063 236.518 207.315C252.284 206.819 268.198 208.649 283.337 203.844C304.25 197.207 324.546 189.668 345.083 183.165C354.417 180.209 362.057 173.797 356.854 163.425C356.488 164.308 355.978 164.662 353.355 166.005L353.355 165.997Z" fill="#00662C"/>
</g>
<path d="M490.056 412.503C490.66 414.138 491.159 415.226 491.466 416.365C496.228 434.084 500.846 451.836 505.784 469.503C506.923 473.571 505.7 475.305 501.889 475.852C483.994 478.425 466.099 480.983 448.212 483.556C446.202 483.843 444.193 484.155 442.183 484.458C442.119 485.007 442.046 485.547 441.981 486.096C443.269 486.528 444.611 487.451 445.834 487.305C456.192 486.098 466.542 484.827 476.856 483.323C487.009 481.845 497.117 480.07 507.469 478.389C510.78 494.38 513.884 509.407 517.065 524.78C514.093 525.42 511.918 525.935 509.724 526.353C495.641 529.016 481.532 531.583 467.483 534.398C465.363 534.824 461.692 536.666 461.792 537.446C462.218 540.686 465.365 539.955 467.609 539.673C482.091 537.866 496.548 535.923 511.012 533.996C513.111 533.715 515.199 533.29 518.06 532.805C519.282 542.527 520.619 551.893 521.594 561.288C522.287 567.948 522.418 574.665 522.99 581.343C523.185 583.636 522.546 584.548 520.285 585.298C511.715 588.17 502.91 588.218 494.033 588.235C488.426 588.245 482.812 588.883 477.204 589.319C476.158 589.399 474.984 589.609 474.147 590.169C473.381 590.68 472.994 591.741 472.442 592.563C473.174 593.035 473.874 593.589 474.661 593.94C475.115 594.143 475.718 594.053 476.249 594.038C487.361 593.666 498.476 593.495 509.567 592.802C514.171 592.517 518.702 591.097 523.771 590.097C526.146 614.254 528.519 638.315 530.942 662.956C501.193 665.855 472.099 671.13 442.013 666.953C442.593 656.472 443.312 646.101 443.708 635.72C444.472 615.794 445.558 595.855 445.565 575.925C445.566 559.998 444.238 544.066 443.369 528.144C442.444 511.152 441.777 494.131 440.256 477.187C438.966 462.778 437.963 448.13 434.424 434.197C429.475 414.733 428.692 394.742 424.668 375.208C420.281 353.892 413.263 333.443 405.868 313.057C401.898 302.118 398.456 290.979 394.935 279.881C394.504 278.533 394.655 276.694 395.232 275.389C397.564 270.167 398.067 264.883 396.93 259.292C395.568 252.602 394.502 245.858 393.22 239.15C392.252 234.097 391.075 229.087 390.139 224.034C389.938 222.949 390.145 221.657 390.557 220.62C392.197 216.544 393.991 212.522 395.908 208.079C396.242 208.34 397.484 208.991 398.248 210.003C405.502 219.572 413.675 228.185 423.54 235.114C424.362 235.69 424.974 236.713 425.414 237.649C430.61 248.674 435.766 259.716 440.914 270.766C441.363 271.726 441.725 272.728 442.401 274.362C437.122 276.445 431.973 278.518 426.781 280.495C424.658 281.299 422.352 281.695 420.303 282.636C419.319 283.085 418.726 284.383 417.958 285.296C419.026 285.643 420.206 286.488 421.138 286.257C425.553 285.177 429.933 283.897 434.254 282.504C436.796 281.686 439.228 280.523 441.711 279.503C443.448 278.785 444.619 278.986 445.479 280.995C453.411 299.585 461.432 318.134 469.454 336.763C462.869 340.372 456.795 344.287 450.239 347.122C443.738 349.932 436.763 351.645 429.92 354.75C431.188 354.965 432.509 355.526 433.723 355.355C443.202 354.016 452.389 352.005 460.374 346.072C463.395 343.828 467.27 342.724 471.638 340.695C475.418 350.71 479.897 360.086 482.442 369.958C485.405 381.451 486.635 393.388 488.692 405.119C489.193 407.98 487.548 409.035 485.293 409.616C475.702 412.06 466.102 414.448 456.502 416.852C455.153 417.194 453.805 417.52 452.456 417.854C452.407 418.362 452.358 418.87 452.309 419.378C453.991 419.781 455.803 420.818 457.32 420.489C466.21 418.579 475.032 416.364 483.862 414.229C485.797 413.757 487.697 413.174 490.048 412.519L490.056 412.503Z" fill="#9E541A"/>
<path d="M220.738 296.87C216.376 289.957 212.045 283.06 207.683 276.195C207.04 275.189 206.356 274.08 205.411 273.425C204.663 272.912 203.24 272.586 202.577 272.975C201.93 273.347 201.412 274.821 201.593 275.648C203.758 285.42 205.931 295.201 208.385 304.905C210.36 312.706 209.213 315.808 203.043 320.821C194.333 327.9 185.844 335.259 177.405 342.665C171.774 347.613 166.446 352.911 160.888 357.946C148.501 369.188 138.095 382.029 129.084 397.169C128.028 392.753 126.966 388.998 126.242 385.174C123.457 370.448 120.527 355.741 118.136 340.944C116.01 327.739 116.912 314.498 119.225 301.357C120.014 296.875 120.364 292.205 121.906 287.985C124.78 280.105 127.879 272.221 131.783 264.817C141.808 245.763 155.989 229.935 171.302 214.969C189.173 197.508 209.7 183.715 230.826 170.678C233.381 169.102 236.497 167.88 235.554 164.003C272.564 161.827 309.211 163.531 345.904 168.36C341.031 173.37 336.19 178.355 331.126 183.552C324.089 179.41 315.382 179.488 307.044 181.149C299.124 182.731 293.892 189.147 289.1 195.275C281.437 205.063 280.223 216.27 282.901 228.081C283.495 230.691 283.543 232.318 280.526 233.755C277.87 235.019 275.716 237.556 273.654 239.809C266.994 247.108 260.358 254.432 253.967 261.961C251.821 264.498 250.155 264.659 248.211 262.23C243.788 256.696 239.46 251.08 235.093 245.496C234.6 244.867 234.21 244.075 233.583 243.641C233.022 243.254 231.985 242.899 231.53 243.172C231.043 243.453 230.664 244.562 230.802 245.18C232.19 251.387 233.514 257.619 235.214 263.741C237.604 272.35 233.995 279.557 229.833 286.393C227.442 290.319 223.766 293.458 220.746 296.861L220.738 296.87Z" fill="#009345"/>
<mask id="mask1_1816_19111" style="mask-type:luminance" maskUnits="userSpaceOnUse" x="116" y="163" width="230" height="235">
<path d="M220.737 296.87C216.375 289.957 212.044 283.06 207.682 276.195C207.039 275.189 206.355 274.08 205.41 273.425C204.662 272.912 203.239 272.586 202.576 272.975C201.929 273.347 201.411 274.821 201.592 275.648C203.757 285.42 205.93 295.201 208.384 304.905C210.359 312.706 209.212 315.808 203.042 320.821C194.332 327.9 185.843 335.259 177.404 342.665C171.773 347.613 166.445 352.911 160.887 357.946C148.5 369.188 138.094 382.029 129.083 397.169C128.027 392.753 126.965 388.998 126.241 385.174C123.456 370.448 120.526 355.741 118.135 340.944C116.009 327.739 116.911 314.498 119.224 301.357C120.013 296.875 120.364 292.205 121.905 287.985C124.779 280.105 127.878 272.221 131.782 264.817C141.807 245.763 155.988 229.935 171.301 214.969C189.172 197.508 209.699 183.715 230.825 170.678C233.38 169.102 236.496 167.88 235.553 164.003C272.563 161.827 309.21 163.531 345.903 168.36C341.03 173.37 336.189 178.355 331.125 183.552C324.088 179.41 315.381 179.488 307.043 181.149C299.123 182.731 293.891 189.147 289.099 195.275C281.436 205.063 280.222 216.27 282.9 228.081C283.494 230.691 283.542 232.318 280.525 233.755C277.869 235.019 275.715 237.556 273.653 239.809C266.993 247.108 260.357 254.432 253.966 261.961C251.82 264.498 250.155 264.659 248.21 262.23C243.787 256.696 239.459 251.08 235.092 245.496C234.599 244.867 234.209 244.075 233.582 243.641C233.021 243.254 231.984 242.899 231.529 243.172C231.042 243.453 230.663 244.562 230.801 245.18C232.189 251.387 233.513 257.619 235.213 263.741C237.603 272.35 233.994 279.557 229.832 286.393C227.441 290.319 223.765 293.458 220.745 296.861L220.737 296.87Z" fill="white"/>
</mask>
<g mask="url(#mask1_1816_19111)">
<path d="M351.419 163.187C337.285 171.732 324.228 182.895 310.378 192.104C297.484 200.679 284.403 208.491 271.705 217.232C261.145 224.507 248.084 229.33 240.976 240.157C234.617 241.611 227.596 234.133 223.376 238.674C217.586 244.913 226.665 252.619 214.945 256.536C205.541 259.687 200.683 253.079 196.173 261.982C190.441 273.288 197.035 289.006 192.748 300.5C187.282 315.129 168.181 325.019 159.369 337.264C149.113 351.52 139.296 366.132 129.918 380.923C125.807 387.403 119.356 398.035 122.772 406.299C136.944 440.62 224.873 380.293 237.07 370.915C267.717 347.362 299.267 314.992 318.953 281.143C330.018 262.114 342.511 239.979 350.588 219.358C357.78 201.014 362.621 181.625 351.427 163.163L351.419 163.187Z" fill="#00662C"/>
</g>
<path d="M362.564 163.953C364.928 162.557 366.679 161.065 368.691 160.415C372.372 159.242 376.173 158.075 379.996 157.769C396.958 156.426 413.931 155.243 430.924 154.359C434.571 154.168 438.348 155.225 441.978 156.074C447.701 157.408 453.279 159.824 459.047 160.368C466.178 161.038 470.967 165.133 475.734 169.421C487.579 180.076 500.117 190.148 510.689 201.965C521.803 214.386 532.286 227.783 540.657 242.145C554.886 266.541 564.173 292.957 565.165 321.671C565.194 322.605 565.232 323.547 565.222 324.482C565.225 324.715 565.035 324.943 564.833 325.422C540.4 322.766 515.692 321.064 494.929 307.124C497.944 291.266 500.765 276.426 503.585 261.586C503.787 260.536 504.263 259.458 504.151 258.444C504.021 257.246 503.392 256.103 502.98 254.941C501.887 255.682 500.324 256.18 499.783 257.211C496.805 262.902 494.249 268.804 491.238 274.471C486.871 282.679 484.316 285.383 478.502 288.876C468.166 277.789 457.748 266.687 447.474 255.462C446.647 254.563 446.346 252.731 446.529 251.439C447.332 245.748 448.498 240.1 449.309 234.409C449.485 233.173 448.756 231.798 448.447 230.498C447.305 231.215 445.919 231.735 445.071 232.706C443.772 234.216 442.783 236.002 441.761 237.733C440.149 240.464 438.043 240.736 435.806 238.747C431.685 235.085 427.689 231.276 423.687 227.484C415.812 220.018 408.733 211.349 399.825 205.461C394.318 201.82 391.946 197.681 389.724 192.316C384.547 179.792 375.14 171.14 362.564 163.961L362.564 163.953Z" fill="#009345"/>
<mask id="mask2_1816_19111" style="mask-type:luminance" maskUnits="userSpaceOnUse" x="362" y="154" width="204" height="172">
<path d="M362.564 163.954C364.928 162.558 366.679 161.066 368.691 160.416C372.372 159.243 376.173 158.076 379.996 157.77C396.958 156.427 413.931 155.244 430.924 154.36C434.571 154.169 438.348 155.226 441.978 156.075C447.701 157.409 453.279 159.825 459.047 160.369C466.178 161.039 470.967 165.134 475.734 169.422C487.579 180.077 500.117 190.149 510.689 201.966C521.803 214.387 532.286 227.784 540.657 242.146C554.886 266.541 564.173 292.958 565.165 321.672C565.194 322.606 565.232 323.548 565.222 324.482C565.225 324.716 565.035 324.944 564.833 325.423C540.4 322.767 515.692 321.065 494.929 307.125C497.944 291.267 500.765 276.427 503.585 261.587C503.787 260.537 504.263 259.459 504.151 258.445C504.021 257.247 503.392 256.104 502.98 254.942C501.887 255.683 500.324 256.181 499.783 257.212C496.805 262.903 494.249 268.805 491.238 274.472C486.871 282.68 484.316 285.384 478.502 288.877C468.166 277.79 457.748 266.688 447.474 255.463C446.647 254.564 446.346 252.732 446.529 251.44C447.332 245.749 448.498 240.101 449.309 234.41C449.485 233.174 448.756 231.799 448.447 230.499C447.305 231.216 445.919 231.736 445.071 232.707C443.772 234.217 442.783 236.003 441.761 237.734C440.149 240.465 438.043 240.737 435.806 238.748C431.685 235.086 427.689 231.277 423.687 227.485C415.812 220.019 408.733 211.35 399.825 205.462C394.318 201.821 391.946 197.682 389.724 192.317C384.547 179.793 375.14 171.141 362.564 163.962L362.564 163.954Z" fill="white"/>
</mask>
<g mask="url(#mask2_1816_19111)">
<path d="M575.565 319.465C557.43 313.302 529.196 312.409 512.941 301.497C500.542 293.171 507.648 266.716 505.508 252.577C500.676 257.118 491.498 270.206 485.654 272.201C477.454 275.003 473.169 267.904 467.102 262.313C461.965 257.571 452.678 251.568 449.126 245.602C444.906 238.502 447.283 227.471 444.84 220.159C429.889 234.057 424.341 218.775 413.655 206.404C396.864 186.96 371.587 172.812 347.824 163.565C343.356 173.128 351.532 188.509 355.563 197.005C370.691 228.928 394.808 258.544 418.532 284.347C435.911 303.25 455.698 320.467 479.503 330.334C495.729 337.058 512.393 347.271 529.249 351.859C539.594 354.672 550.079 352.755 560.243 350.375C569.074 348.312 585.467 349.845 592.451 343.218C597.592 338.333 599.875 323.662 588.893 326.827" fill="#00662C"/>
</g>
<path d="M606.89 196.087C598.714 192.268 591.298 189.226 584.29 185.437C570.6 178.032 555.774 173.979 540.901 170.048C529.644 167.07 518.441 163.399 506.971 161.891C498.859 160.825 496.009 155.961 493.087 150.058C490.829 145.499 488.771 140.833 486.322 136.381C485.618 135.103 483.876 134.387 482.613 133.414C481.876 134.843 480.456 136.306 480.532 137.698C480.855 143.816 481.613 149.92 482.181 155.688C475.703 156.749 469.95 157.759 464.169 158.569C462.947 158.74 461.539 158.317 460.34 157.851C455.487 155.965 450.673 153.997 445.875 151.988C436.537 148.081 426.769 148.352 416.966 148.979C404.265 149.793 391.547 150.486 378.857 151.453C374.769 151.762 370.723 152.756 366.367 153.48C366.71 149.367 366.916 145.287 367.478 141.251C367.638 140.081 368.627 138.858 369.549 137.99C383.6 124.847 398.558 112.593 415.994 104.532C426.389 99.7318 438.191 97.5212 449.601 95.4936C470.018 91.8521 490.683 91.3972 511.11 95.5538C525.541 98.4848 539.077 104.176 550.549 113.579C560.057 121.375 569.018 129.856 578.042 138.224C586.274 145.845 591.625 155.37 595.476 165.827C599.116 175.715 602.909 185.544 606.89 196.087Z" fill="#009345"/>
<mask id="mask3_1816_19111" style="mask-type:luminance" maskUnits="userSpaceOnUse" x="366" y="92" width="241" height="105">
<path d="M606.89 196.086C598.714 192.267 591.298 189.225 584.29 185.436C570.6 178.031 555.774 173.978 540.901 170.047C529.644 167.069 518.441 163.398 506.971 161.89C498.859 160.824 496.009 155.96 493.087 150.057C490.829 145.498 488.771 140.832 486.322 136.38C485.618 135.102 483.876 134.386 482.613 133.413C481.876 134.842 480.456 136.305 480.532 137.697C480.855 143.815 481.613 149.919 482.181 155.687C475.703 156.748 469.95 157.758 464.169 158.568C462.947 158.739 461.539 158.316 460.34 157.85C455.487 155.964 450.673 153.996 445.875 151.988C436.537 148.08 426.769 148.351 416.966 148.978C404.265 149.792 391.547 150.485 378.857 151.452C374.769 151.761 370.723 152.755 366.367 153.479C366.71 149.366 366.916 145.286 367.478 141.25C367.638 140.08 368.627 138.857 369.549 137.989C383.6 124.846 398.558 112.592 415.994 104.531C426.389 99.7308 438.191 97.5202 449.601 95.4926C470.018 91.8511 490.683 91.3962 511.11 95.5528C525.541 98.4838 539.077 104.175 550.549 113.578C560.057 121.374 569.018 129.855 578.042 138.223C586.274 145.844 591.625 155.369 595.476 165.826C599.116 175.714 602.909 185.543 606.89 196.086Z" fill="white"/>
</mask>
<g mask="url(#mask3_1816_19111)">
<path d="M615.385 201.82C606.659 192.949 595.397 188.537 584.872 182.19C573.135 175.111 561.887 166.704 549.241 161.281C537.364 156.194 523.671 150.288 510.961 147.646C504.908 146.389 500.212 147.505 495.331 144.297C489.182 140.262 485.817 132.159 479.317 128.379C476.758 132.404 475.53 142.693 471.813 145.213C469.197 146.983 459.968 145.555 456.859 145.6C430.682 145.983 406.372 149.472 380.753 153.318C374.861 154.202 358.056 155.253 355.116 161.934C351.327 170.553 365.888 177.985 372.484 180.636C389.064 187.274 408.481 185.749 425.741 183.87C449.718 181.264 471.42 181.761 495.379 185.632C523.133 190.125 549.216 201.522 576.689 206.091C587.721 207.928 610.663 211.145 608.52 193.502C606.94 193.952 606.086 195.044 615.393 201.82L615.385 201.82Z" fill="#00662C"/>
</g>
<path d="M301.518 31.2915C305.725 34.1141 310.133 36.4101 313.708 39.6206C318.867 44.258 323.448 49.5564 328.242 54.5939C336.039 62.7938 340.778 72.8429 345.501 82.9326C346.624 85.3249 348.73 87.2518 350.365 89.4111C350.841 90.0325 351.35 90.6615 351.667 91.3658C360.789 111.437 364.267 132.235 359.51 154.016C358.838 157.087 357.39 159.992 355.825 164.276C352.414 161.257 349.386 159.166 347.099 156.453C333.679 140.577 319.562 125.444 302.563 113.278C289.114 103.655 275.127 94.7476 258.91 90.8356C250.494 88.7995 244.505 83.6345 237.73 79.1899C228.563 73.177 219.033 67.7092 209.638 62.0462C208.735 61.5035 207.682 61.0838 206.648 60.8975C196.656 59.0939 186.664 57.2662 176.643 55.608C169.399 54.4087 162.118 53.4436 153.851 52.2271C155.573 50.4216 156.814 48.8245 158.343 47.5696C168.564 39.1789 180.455 34.228 193.067 30.6281C210.804 25.5595 228.967 23.111 247.295 21.9974C257.484 21.3813 267.675 22.4811 277.2 26.515C280.442 27.8855 283.242 30.3742 286.157 32.4745C287.671 33.5641 288.949 34.9875 290.431 36.1259C294.872 39.5332 297.328 38.9334 299.801 33.9831C300.146 33.2852 300.628 32.6579 301.51 31.2755L301.518 31.2915Z" fill="#009345"/>
<path d="M367.031 132.727C366.344 128.741 365.462 124.057 364.749 119.339C363.025 107.803 358.713 97.1599 353.999 86.5949C353.049 84.4578 352.742 81.6265 353.224 79.3477C354.054 75.4526 355.374 71.5664 357.127 67.98C364.229 53.4479 373.007 40.0192 384.496 28.5085C392.913 20.0879 403.614 15.8391 414.985 14.4646C433.593 12.211 452.33 10.4469 471.06 9.87526C483.364 9.50219 495.621 11.9333 506.132 19.5458C508.689 21.4016 511.609 22.7526 515.354 24.9053C499.071 29.2195 487.7 40.4787 473.939 47.5596C470.061 49.5577 466.516 52.3163 463.1 55.073C459.82 57.723 456.761 59.0084 452.198 58.2372C446.19 57.2213 439.928 57.6108 433.773 57.5799C432.766 57.5704 431.748 58.4876 430.732 58.9777C431.503 59.9171 432.087 61.2781 433.084 61.7227C438.217 64.0162 443.467 66.0582 448.663 68.2219C449.854 68.7201 450.983 69.3481 452.225 69.9583C445.433 72.7079 438.944 75.1873 432.605 78.0029C430.34 79.0027 428.499 80.9147 426.359 82.251C424.252 83.5707 421.963 84.6192 419.855 85.939C418.283 86.9206 416.858 88.1418 415.368 89.2511C416.723 90.4639 418.062 91.693 419.441 92.8732C419.735 93.1267 420.155 93.2173 420.569 93.4046C402.715 106.515 384.893 119.608 367.031 132.727Z" fill="#009345"/>
<path d="M333.213 225.566C350.174 237.322 366.796 238.03 383.252 226.285C393.781 246.707 389.309 266.469 370.043 278.335C362.53 282.964 353.791 280.9 346.145 276.952C337.597 272.533 332.834 265.207 331.686 255.581C330.511 245.697 330.456 235.878 333.213 225.574L333.213 225.566Z" fill="#D19336"/>
<mask id="mask4_1816_19111" style="mask-type:luminance" maskUnits="userSpaceOnUse" x="330" y="225" width="59" height="56">
<path d="M333.213 225.565C350.174 237.321 366.796 238.029 383.252 226.284C393.781 246.706 389.309 266.468 370.043 278.334C362.53 282.963 353.791 280.899 346.145 276.951C337.597 272.532 332.834 265.206 331.686 255.58C330.511 245.696 330.456 235.877 333.213 225.573L333.213 225.565Z" fill="white"/>
</mask>
<g mask="url(#mask4_1816_19111)">
<path d="M379.531 224.671C383.978 239.002 385.472 255.826 373.318 266.508C358.962 279.132 346.322 262.633 331.353 268.024C330.074 276.469 335.919 283.368 342.107 288.425C357.892 301.326 379.866 299.442 393.301 283.883C405.541 269.719 407.946 252.331 399.092 235.761C396.624 231.148 390.624 216.437 379.531 224.663L379.531 224.671Z" fill="#9E5C04"/>
</g>
<path d="M329.948 205.982C328.648 198.605 332.388 192.179 334.989 185.486C335.199 184.951 335.862 184.539 336.388 184.193C340.962 181.25 345.732 178.57 350.099 175.349C354.929 171.782 361.043 171.177 365.566 175.308C370.474 179.788 375.033 184.716 379.265 189.85C383.013 194.396 384.015 200.157 382.978 205.811C382.471 208.582 380.689 211.831 378.466 213.458C370.272 219.451 360.858 223.044 350.902 224.785C340.279 226.648 329.532 215.591 329.948 205.982Z" fill="#D19336"/>
<path d="M324.74 249.343C326.56 269.15 335.16 283.211 354.355 290.221C352.805 292.194 351.524 294.396 349.711 296.009C341.679 303.183 331.785 306.405 321.479 305.114C305.127 303.065 299.591 290.844 300.174 276.149C300.35 271.652 301.566 267.179 302.516 262.734C303.67 257.368 307.016 254.21 312.46 252.986C316.434 252.09 320.289 250.681 324.74 249.343Z" fill="#D19336"/>
<mask id="mask5_1816_19111" style="mask-type:luminance" maskUnits="userSpaceOnUse" x="300" y="249" width="55" height="57">
<path d="M324.741 249.343C326.561 269.15 335.161 283.211 354.356 290.221C352.806 292.194 351.525 294.396 349.712 296.009C341.68 303.183 331.786 306.405 321.48 305.114C305.128 303.065 299.592 290.844 300.175 276.149C300.351 271.652 301.567 267.179 302.517 262.734C303.671 257.368 307.017 254.21 312.461 252.986C316.435 252.09 320.29 250.681 324.741 249.343Z" fill="white"/>
</mask>
<g mask="url(#mask5_1816_19111)">
<path d="M358.784 286.743C351.654 295.547 341.892 299.5 330.71 295.112C321.157 291.36 305.598 266.864 296.801 272.374C290.566 276.283 290.788 290.402 291.498 296.547C292.899 308.578 300.51 315.653 311.406 320.376C337.253 331.583 349.161 316.819 358.776 286.743L358.784 286.743Z" fill="#9E5C04"/>
</g>
<path d="M324.842 238.635C316.864 238.453 309.264 238.242 301.665 238.111C292.269 237.95 289.497 235.147 288.314 225.836C286.44 211.12 290.98 199.316 302.998 190.392C306.186 188.025 309.47 186.737 313.398 187.09C318.198 187.52 322.998 187.949 328.781 188.469C324.498 195.774 323.491 202.435 324.309 209.351C324.575 211.586 324.671 214.26 325.943 215.868C329.21 220.01 328.508 223.806 326.793 228.262C325.528 231.551 325.429 235.299 324.85 238.635L324.842 238.635Z" fill="#D19336"/>
</svg>
