<?xml version="1.0" encoding="UTF-8" standalone="no"?>
<!-- Created with Inkscape (http://www.inkscape.org/) -->

<svg
   width="600"
   height="600"
   viewBox="0 0 158.75 158.75"
   version="1.1"
   id="svg1"
   xml:space="preserve"
   xmlns:inkscape="http://www.inkscape.org/namespaces/inkscape"
   xmlns:sodipodi="http://sodipodi.sourceforge.net/DTD/sodipodi-0.dtd"
   xmlns="http://www.w3.org/2000/svg"
   xmlns:svg="http://www.w3.org/2000/svg"><sodipodi:namedview
     id="namedview1"
     pagecolor="#ffffff"
     bordercolor="#000000"
     borderopacity="0.25"
     inkscape:showpageshadow="2"
     inkscape:pageopacity="0.0"
     inkscape:pagecheckerboard="0"
     inkscape:deskcolor="#d1d1d1"
     inkscape:document-units="mm" /><defs
     id="defs1" /><g
     inkscape:label="Layer 1"
     inkscape:groupmode="layer"
     id="layer1"><g
       id="g1"
       transform="translate(-17.976982,-99.759591)"><g
         id="g10"><g
           id="g11"
           transform="matrix(2.0000598,0,0,2.0000598,-145.57816,-140.44524)"><path
             style="fill:#fefdfd"
             d="m 125.14925,176.88273 c -4.45121,-0.86635 -4.79288,-2.45967 -0.70497,-3.2875 7.80576,-1.58071 14.18629,-8.16084 14.32642,-14.77458 0.0116,-0.54628 1.22132,0.0516 1.96194,0.96963 2.29308,2.84236 -1.7247,11.22585 -6.94165,14.48444 -3.71753,2.32202 -6.22426,3.07854 -8.64174,2.60801 z m -8.20208,-5.70413 c -0.29105,-0.0693 -1.50565,-0.42707 -2.69912,-0.79515 -5.79016,-1.78571 -10.04155,-7.46162 -9.81462,-13.1032 0.0783,-1.94693 0.0783,-1.94693 0.56317,0.96349 1.54735,9.28819 9.29958,14.02517 19.88807,12.15256 0.79375,-0.14038 0.79375,-0.14038 0,0.329 -0.78271,0.46285 -6.52039,0.79052 -7.9375,0.4533 z m -1.0996,-8.85193 c -0.69861,-0.25843 -1.67853,-1.49653 -1.67853,-2.12077 0,-1.26743 3.49607,-2.73998 4.90679,-2.06675 2.43952,1.16421 -0.63172,5.14805 -3.22826,4.18752 z M 102.1494,146.31859 c -0.81125,-0.81124 -0.48884,-1.57932 1.59095,-3.79014 3.60725,-3.83453 6.99325,-5.57953 8.29691,-4.27587 1.3061,1.3061 0.85554,1.91663 -3.95364,5.35745 -4.36944,3.1262 -5.15708,3.48571 -5.93422,2.70856 z m 14.73825,-7.51117 c -1.42352,-0.343 -2.18944,-0.99002 -2.18944,-1.84954 0,-2.66626 6.91294,-3.26965 7.56778,-0.66055 0.40792,1.62528 -2.81261,3.12831 -5.37834,2.51009 z"
             id="path10" /><path
             style="fill:#fdf197"
             d="m 115.18105,170.03854 c -8.29338,-2.23752 -13.3591,-14.0594 -8.98202,-20.96134 3.46717,-5.46716 17.37252,-9.34085 21.20394,-5.9069 0.22089,0.19798 0.87574,0.57783 1.4552,0.84411 5.66825,2.6047 8.47198,9.79319 6.49994,16.66525 -0.78419,2.73271 -6.71074,8.90073 -8.88594,9.24798 -0.14552,0.0232 -0.97106,0.17206 -1.83453,0.33073 -2.45463,0.45106 -7.39565,0.3362 -9.45659,-0.21983 z m 6.017,-1.35714 c 10.77741,-1.90819 15.33042,-11.89623 6.10526,-13.39326 -0.90928,-0.14756 -0.90928,-0.14756 0.88868,-1.84366 3.35069,-3.16087 3.87714,-8.38146 0.79372,-7.87097 -2.97823,0.49307 -6.10531,2.83955 -7.46505,5.60157 -0.92984,1.88879 -1.47959,1.62319 -1.52457,-0.73655 -0.11119,-5.8345 -1.23781,-7.47475 -4.268,-6.21379 -2.76821,1.15193 -2.71504,0.80176 -0.91821,6.04754 1.76382,5.14941 1.76732,5.03043 -0.19025,6.47657 -5.19901,3.84073 -5.74174,10.33851 -0.986,11.80467 1.44142,0.44438 5.39896,0.51128 7.56442,0.12788 z m 19.39925,0.41025 c 0.12252,-0.43656 0.59747,-1.67258 1.05545,-2.7467 2.03764,-4.77903 1.72015,-14.22484 -0.64626,-19.22703 -2.48458,-5.25197 -8.36108,-8.95718 -17.42227,-10.98499 -0.81272,-0.18188 -1.47768,-0.43688 -1.47768,-0.56667 0,-0.87337 -3.93363,-1.30624 -5.74933,-0.63267 -0.54865,0.20353 -2.06911,0.51692 -3.37879,0.69643 -1.30969,0.17951 -2.91453,0.48579 -3.56631,0.68062 -1.82855,0.54658 -1.89232,-0.002 -0.10435,-0.89735 6.01302,-3.01159 14.6542,-3.48322 20.30661,-1.10832 1.03117,0.43325 1.9806,0.78773 2.10984,0.78773 0.9996,0 7.76368,5.05805 8.59666,6.42842 1.16596,1.91816 2.68794,5.18386 2.69055,5.77309 0.003,0.67248 1.69552,6.9148 2.01506,7.43183 1.06384,1.72132 -1.71981,11.51857 -4.11924,14.49791 -0.5327,0.66145 -0.5327,0.66145 -0.30994,-0.1323 z"
             id="path8" /><path
             style="fill:#f1e021"
             d="M 111.19969,182.69947 C 98.986342,178.8104 90.547335,165.4448 92.834898,153.61353 c 0.07034,-0.3638 0.20111,-1.37583 0.290599,-2.24896 0.362592,-3.53774 0.564988,-4.05094 3.466799,-8.79058 1.055386,-1.72381 2.212622,-3.22251 3.084487,-3.99463 0.767457,-0.67966 1.693037,-1.54076 2.056837,-1.91356 7.21664,-7.39511 20.41088,-9.57117 30.1625,-4.97457 0.94589,0.44586 2.61195,1.16573 3.70235,1.59971 3.27734,1.30438 8.2975,5.99341 9.71883,9.0778 3.01384,6.5402 4.25837,12.12531 3.49205,15.67132 -0.35234,1.63037 -0.96609,3.8355 -1.38224,4.96618 -0.21423,0.58208 -0.65077,1.87579 -0.97009,2.8749 -0.56285,1.76113 -1.97752,4.40114 -2.35839,4.40114 -0.10314,0 -0.65847,0.62047 -1.23408,1.37883 -3.73947,4.92673 -7.52598,7.78132 -12.70811,9.58045 -1.15323,0.40038 -2.28709,0.8265 -2.51969,0.94695 -3.42621,1.77416 -11.66571,2.03029 -16.43706,0.51096 z m 14.06311,-1.08692 c 5.505,-1.05378 12.19659,-5.02908 15.28651,-9.08131 7.0284,-9.21732 7.84377,-17.85325 2.70103,-28.60775 -5.20073,-10.87576 -21.53434,-16.24814 -33.24944,-10.93626 -5.69166,2.58072 -14.057979,11.11198 -13.394648,13.65872 0.06952,0.26691 -0.313412,1.67591 -0.850959,3.13112 -3.805302,10.30143 1.393518,22.99507 12.215967,29.82698 3.04534,1.92244 12.19134,2.98479 17.29154,2.0085 z"
             id="path7" /><path
             style="fill:#fdbc00"
             d="m 116.55029,179.94504 c -1.23693,-0.18339 -2.97316,-0.57406 -3.8583,-0.86817 -0.88513,-0.2941 -2.31388,-0.69183 -3.175,-0.88384 -6.04776,-1.34856 -13.746819,-15.5231 -12.970207,-23.87914 0.465873,-5.01261 3.832577,-12.00477 6.734877,-13.98735 0.67655,-0.46216 1.88493,-1.45731 2.6853,-2.21145 1.01813,-0.95933 1.73335,-1.41019 2.38125,-1.5011 0.50932,-0.0715 1.93807,-0.3246 3.175,-0.56252 4.05641,-0.78025 3.78869,-0.77203 3.31935,-0.10195 -1.11594,1.59322 0.0713,2.91472 2.75479,3.06635 2.73837,0.15473 5.03836,-0.93756 5.03836,-2.39278 0,-0.61128 0.36299,-0.55764 4.20754,0.6217 9.41252,2.88735 13.25229,6.2104 15.16677,13.12576 0.96759,3.49505 0.87913,12.78984 -0.14417,15.14923 -0.41025,0.94588 -0.9924,2.43417 -1.29367,3.30729 -2.3987,6.95175 -14.46257,12.53523 -24.02189,11.11797 z m 13.16785,-3.31536 c 6.44162,-2.26405 13.40891,-11.37281 11.98928,-15.67432 -0.92027,-2.78844 -2.91106,-3.21544 -3.40349,-0.72999 -1.3238,6.68174 -6.65269,11.74907 -13.80599,13.12835 -2.23209,0.43038 -3.18515,0.93638 -3.18515,1.69106 0,1.71645 5.22692,2.70203 8.40535,1.5849 z m -5.3698,-3.98318 c 10.73839,-3.31675 15.71426,-14.31866 10.96382,-24.24153 -1.47402,-3.07898 -1.69747,-3.28902 -5.83395,-5.48396 -9.86364,-5.23395 -24.625,0.73933 -25.88935,10.47628 -1.46142,11.25463 4.21064,18.80201 14.4875,19.27742 2.07626,0.096 3.85227,0.25188 3.9467,0.34631 0.24835,0.24834 0.37443,0.22804 2.32528,-0.37452 z m -16.52868,-28.56397 c 5.39764,-3.83906 5.86323,-4.47295 4.37703,-5.95915 -2.24351,-2.24351 -12.08844,5.5687 -10.35384,8.21604 0.77705,1.18592 1.54288,0.89674 5.97681,-2.25689 z"
             id="path6" /><path
             style="fill:#f7960c"
             d="m 115.44215,167.40312 c -3.7489,-0.55685 -4.40307,-6.53768 -0.98583,-9.01311 2.68342,-1.94386 6.93639,-3.13536 7.96677,-2.23193 0.31249,0.27398 0.48114,0.34933 0.37477,0.16743 -0.2932,-0.50143 2.37642,-0.42531 3.95566,0.11279 5.78895,1.97249 4.93421,7.46535 -1.47198,9.4595 -1.23693,0.38503 -2.46509,0.76564 -2.72925,0.84579 -0.45607,0.13838 -0.45457,0.0945 0.0297,-0.86977 1.18613,-2.36187 2.06999,-5.99081 1.72845,-7.09657 -0.23856,-0.77233 -0.67407,0.46745 -0.46159,1.31403 0.48879,1.94752 -1.77432,6.89499 -3.25498,7.11583 -2.02894,0.30262 -3.94359,0.37547 -5.15171,0.19601 z m 2.99078,-5.33851 c 1.52617,-0.7786 2.27576,-2.70166 1.47823,-3.79235 -0.70874,-0.96925 -4.40122,-0.26706 -5.4892,1.04386 -1.58812,1.91357 1.49984,4.02957 4.01097,2.74849 z"
             id="path5" /><path
             style="fill:#a58f62"
             d="m 118.08086,154.60572 c -1.64935,-1.29065 -3.05151,-8.7873 -1.7122,-9.1543 1.13968,-0.3123 1.07518,-0.44928 2.01607,4.28139 0.949,4.7715 0.88468,5.80296 -0.30387,4.87291 z"
             id="path4" /><path
             style="fill:#af7425"
             d="m 105.40583,188.05093 c -0.0428,-0.42541 -2.29916,-0.24829 -5.27105,-2.83208 -2.097654,-1.82373 -4.631222,-5.81647 -6.288625,-8.88188 -3.169521,-5.8621 -2.67977,-15.55997 -2.363854,-16.14293 0.113889,-0.21016 2.455312,8.64057 4.501017,10.69246 2.579112,2.58691 3.72146,7.27963 8.513562,9.77996 7.96372,4.15516 13.93267,4.31677 16.35663,4.13876 21.67664,-1.59192 25.24899,-19.84379 27.02505,-15.74483 1.95204,4.50509 -5.7976,13.51402 -13.69872,18.94885 -4.24632,2.92085 -9.07659,4.06662 -11.25335,4.5965 -3.58493,0.87267 -17.24899,-1.85661 -17.52066,-4.55481 z m 11.80341,1.47979 c 0.11313,-1.34607 0.21951,-2.86412 0.2364,-3.37344 0.027,-0.81598 0.1216,-0.93642 0.79557,-1.01336 0.91744,-0.10473 0.8833,5.79765 -0.0376,6.50346 -1.05503,0.8086 -1.21212,0.4742 -0.99435,-2.11666 z m -2.90851,1.71574 c -0.61127,-0.44809 -0.14603,-6.21341 0.48769,-6.0434 0.31418,0.0843 0.73211,0.15487 0.92873,0.15686 0.27745,0.003 0.32487,0.37381 0.2118,1.65725 -0.0801,0.90951 -0.15169,2.27873 -0.15904,3.04271 -0.0135,1.40561 -0.56393,1.85014 -1.46918,1.18658 z m 9.07912,-2.04647 c -0.0273,-1.23693 -0.0571,-2.56782 -0.0662,-2.95753 -0.0132,-0.56408 0.13953,-0.75031 0.74881,-0.91325 0.76535,-0.20469 0.76535,-0.20469 0.59532,1.80682 -0.0935,1.10633 -0.17004,2.52932 -0.17004,3.16221 0,2.55361 -1.05035,1.51244 -1.10794,-1.09825 z m 2.38021,-1.15846 c 0.13098,-3.5609 0.002,-3.15771 1.08103,-3.37356 0.85951,-0.1719 0.85951,-0.1719 0.65698,0.85714 -0.11139,0.56597 -0.20919,1.90161 -0.21734,2.96808 -0.0146,1.90649 -0.0284,1.94477 -0.82429,2.28113 -0.80948,0.3421 -0.80948,0.3421 -0.69638,-2.73279 z m -14.14809,2.46335 c -0.11491,-0.29945 0.009,-5.10559 0.16579,-6.41595 0.018,-0.15077 1.19708,0.28213 1.33295,0.48939 0.53701,0.81918 -0.0602,6.34146 -0.68578,6.34146 -0.35956,0 -0.72539,-0.18671 -0.81296,-0.4149 z m -1.97325,-0.38116 c -0.3705,-0.21646 -0.46525,-5.86828 -0.10541,-6.28777 0.5542,-0.64609 0.93189,0.48984 0.93518,2.81266 0.002,1.40326 0.0754,2.81927 0.16315,3.14669 0.17296,0.64542 -0.22502,0.77706 -0.99292,0.32842 z m 19.19854,-2.93125 c -0.0154,-2.72804 0.51768,-3.95574 1.34554,-3.09859 0.0558,0.0577 0.316,5.50298 0.263,5.50298 -0.005,0 -0.36478,0.10139 -0.80038,0.22531 -0.792,0.22531 -0.792,0.22531 -0.80816,-2.6297 z m 3.05886,-1.04887 c 0,-2.66438 0.20301,-3.16132 1.29143,-3.16132 0.73486,0 0.20082,5.208 -0.56382,5.49847 -0.72761,0.2764 -0.72761,0.2764 -0.72761,-2.33715 z m -28.2575,0.75451 c -0.36765,-0.36765 -0.45609,-6.29708 -0.0939,-6.29708 0.80331,0 1.03218,0.95924 0.89957,3.77031 -0.13463,2.85388 -0.21777,3.11464 -0.80565,2.52677 z m 31.08017,-2.2617 c 0.0443,-2.53277 0.44277,-3.47086 1.48674,-3.50033 0.69991,-0.0198 0.61079,5.21441 -0.16784,5.8141 -0.79375,0.61135 -1.36344,0.23155 -1.3189,-2.31377 z m -32.97586,0.74451 c -0.29538,-0.55193 -0.37047,-4.52466 -0.1043,-5.51832 0.39975,-1.4923 0.75959,-0.28845 0.84006,2.81049 0.0827,3.18449 -0.10701,3.88265 -0.73576,2.70783 z m 35.89827,-3.0601 c 0.1141,-2.23354 0.17103,-2.42755 0.91771,-3.12769 1.00883,-0.94595 1.06153,-0.87396 0.79372,1.08428 -0.12315,0.90052 -0.11856,1.79473 0.0104,2.02517 0.17082,0.30522 -0.0391,0.6712 -0.80627,1.40606 -1.03719,0.99343 -1.03719,0.99343 -0.91555,-1.38782 z"
             id="path3"
             sodipodi:nodetypes="sssssssssssscssssssccssccsssccscscssscssssssssccsscsssssssssscsssssssssscss" /><path
             style="fill:#0b8a4c"
             d="m 124.88467,152.29061 c 1.30362,-1.30968 2.19674,-2.38125 1.98471,-2.38125 -0.21203,0 -1.31088,0.91994 -2.44188,2.04432 -2.15958,2.14691 -2.49764,2.12008 -1.38633,-0.11003 1.07639,-2.16002 5.40622,-5.7358 6.10239,-5.03963 1.19104,1.19104 -1.08272,6.03554 -3.36704,7.17386 -3.20917,1.5992 -3.54004,0.97325 -0.89185,-1.68727 z"
             id="path2" /><path
             style="fill:#0f2b23"
             d="m 117.49771,193.5212 c -2.22164,-0.22464 -5.2913,-0.94246 -6.37138,-1.4899 -0.43656,-0.22127 -1.93415,-0.89786 -3.32797,-1.50353 -6.10334,-2.65215 -10.971682,-6.90325 -13.337562,-11.64653 -0.725836,-1.45521 -1.698492,-3.27772 -2.161457,-4.05001 -4.1097,-6.85563 -1.185894,-29.58395 4.539492,-35.28791 4.282597,-4.26657 7.827217,-6.98332 10.435787,-7.99843 0.64645,-0.25156 1.47989,-0.67078 1.85208,-0.9316 0.37219,-0.26083 1.15297,-0.62594 1.73505,-0.81136 0.58208,-0.18542 1.9513,-0.69322 3.04271,-1.12844 3.67817,-1.46676 10.00716,-1.11034 16.13958,0.9089 11.96277,3.939 17.15729,9.64573 19.58628,21.5176 0.35019,1.71156 0.55687,14.60566 0.26931,16.80104 -1.67819,12.812 -19.5236,26.92235 -32.40192,25.62017 z m 1.12836,-1.74153 c 0.95571,-1.82616 0.59804,-6.68073 -0.49221,-6.68073 -1.10842,0 -1.11374,0.005 -0.98054,0.8599 0.0737,0.47294 0.0197,1.9141 -0.11999,3.20258 -0.31467,2.9034 0.63044,4.45704 1.59274,2.61825 z m 2.65365,0.29766 c 0.95093,-0.19019 1.33387,-5.96361 0.44451,-6.70172 -0.86103,-0.71458 -1.58981,-0.23325 -1.78443,1.17854 -0.8533,6.1901 -0.90612,5.97239 1.33992,5.52318 z m -5.25792,-3.59217 c 0.21312,-3.44401 0.31512,-3.07517 -0.97318,-3.51923 -1.23444,-0.4255 -1.06919,-0.86933 -1.18121,3.17255 -0.0952,3.4364 -0.0952,3.4364 0.69851,3.59157 1.1648,0.22771 1.25318,0.0307 1.45588,-3.24489 z m 8.64164,0.0534 c 0.17249,-1.67349 0.3226,-3.1878 0.33357,-3.36514 0.011,-0.17733 -0.12888,-0.27657 -0.31078,-0.22053 -0.1819,0.056 -0.65815,0.17363 -1.05833,0.26132 -1.27716,0.27985 -1.0952,6.62855 0.1847,6.44436 0.48261,-0.0694 0.56908,-0.3865 0.85084,-3.12001 z m 1.77178,2.51193 c 1.09722,-0.45845 1.37151,-1.15578 1.11948,-2.84605 -0.0919,-0.6166 -0.0555,-1.71631 0.0809,-2.4438 0.29552,-1.57566 0.32205,-1.53471 -0.85167,-1.31452 -0.9329,0.17501 -0.9329,0.17501 -1.08976,2.19987 -0.0863,1.11367 -0.21545,2.64994 -0.28707,3.41392 -0.0716,0.76399 -0.0842,1.38906 -0.0279,1.38906 0.0563,0 0.53146,-0.17932 1.05601,-0.39848 z m -13.25055,-0.20637 c 0.93,-2.42355 -0.20642,-7.83519 -1.39563,-6.64597 -0.29555,0.29555 -0.67882,5.95328 -0.44464,6.56356 0.19608,0.51096 1.65082,0.57611 1.84027,0.0824 z m -2.19063,-3.45889 c 0,-3.31313 -0.15562,-3.87376 -1.07529,-3.87376 -1.08245,0 -1.12676,6.27864 -0.0487,6.9043 1.07585,0.6244 1.12401,0.49456 1.12401,-3.03054 z m 18.94437,2.47376 c 1.36846,-0.47645 1.01642,-6.19894 -0.36436,-5.92279 -0.96256,0.19251 -1.54104,6.18986 -0.59705,6.18986 0.10688,0 0.53952,-0.12018 0.96141,-0.26707 z m -21.66539,-0.7392 c 0.70009,-0.44486 0.6795,-5.75372 -0.0236,-6.07406 -0.61401,-0.27976 -0.61476,-0.27763 -0.94851,2.71678 -0.38399,3.44521 -0.19477,4.09874 0.97207,3.35728 z m 24.39078,-0.43545 c 1.49968,-0.77552 1.41553,-6.20425 -0.0885,-5.70788 -0.85161,0.28105 -1.61311,6.09126 -0.79834,6.09126 0.08,0 0.47906,-0.17252 0.88683,-0.38338 z m -26.43073,-1.66714 c 8.5e-4,-0.83674 0.11946,-2.23573 0.26358,-3.10885 0.2679,-1.62302 -0.2807,-2.9077 -0.82028,-1.92085 -0.36392,0.6656 -0.75305,5.55497 -0.48235,6.06077 0.55864,1.04384 1.03744,0.56873 1.03905,-1.03107 z m -1.30681,-4.34991 c 0.0787,-1.61894 -0.25977,-2.33082 -1.10837,-2.33082 -0.41598,0 -0.49707,0.20438 -0.49865,1.25678 -10e-4,0.69122 -0.0758,2.03974 -0.16625,2.99671 -0.1572,1.66396 -0.13112,1.77328 0.59719,2.50313 0.82692,0.82868 0.9415,0.3975 1.17608,-4.4258 z m 31.39937,3.41012 c 0.13098,-0.17434 0.17019,-1.48237 0.0871,-2.90675 -0.23082,-3.95851 -1.78163,-2.7079 -1.92718,1.55412 -0.0915,2.68057 0.51011,3.12284 1.84005,1.35263 z m -33.57824,-2.93588 c -0.10357,-3.87307 -0.94907,-5.89879 -1.32132,-3.16576 -0.39801,2.92219 -0.26117,5.17928 0.35368,5.83376 0.96225,1.02427 1.05923,0.75687 0.96764,-2.668 z m 35.71257,0.96526 c 1.21492,-1.19563 1.76858,-6.25855 0.61702,-5.64226 -1.47612,0.79 -2.95727,6.59943 -1.69105,6.63271 0.0362,9.6e-4 0.51953,-0.44475 1.07403,-0.99045 z m -37.7362,-2.24896 c 0.0642,-3.59457 0.0339,-3.93367 -0.3905,-4.35803 -0.391231,-0.39123 -1.108084,5.07033 -0.785178,5.98211 0.679398,1.91842 1.123328,1.30518 1.175678,-1.62408 z m 25.28101,1.11854 c 8.60304,-2.17914 13.36365,-5.60418 19.05455,-13.70887 0.92567,-1.3183 2.97299,-7.18914 3.93652,-11.28832 1.79309,-7.62833 -5.48546,-21.96052 -12.48864,-24.59135 -0.71708,-0.26938 -2.43488,-0.99407 -3.81733,-1.61042 -13.92699,-6.20921 -28.92488,-1.46445 -36.748839,11.62594 -2.418243,4.046 -2.583246,4.47535 -2.946646,7.66732 -0.150942,1.32583 -0.399005,2.96631 -0.551249,3.64552 -0.371864,1.659 0.110221,7.24033 0.825369,9.55571 4.65897,15.08399 17.673235,22.51993 32.736265,18.70447 z m -8.39615,-1.20923 c -6.46111,-0.54242 -11.93548,-3.07259 -15.6394,-7.22829 -11.999006,-13.46258 -8.361758,-32.12033 7.96649,-40.86515 18.16286,-9.72738 42.14835,9.69945 35.72569,28.93569 -2.81258,8.42387 -8.25144,14.37953 -15.77776,17.27699 -4.55816,1.75478 -7.82086,2.25469 -12.27502,1.88076 z m 8.43604,-1.96151 c 6.55076,-1.72258 11.04378,-4.80147 14.8026,-10.14364 2.85164,-4.05285 5.28845,-11.97637 4.48802,-14.59322 -1.02975,-3.3666 -2.05695,-7.2546 -2.05927,-7.79446 -0.003,-0.76077 -2.44416,-5.67613 -3.27216,-6.58934 -1.81321,-1.99981 -6.02906,-4.95742 -8.37231,-5.87357 -0.65484,-0.25602 -1.82255,-0.7163 -2.59491,-1.02283 -6.92677,-2.74912 -18.10273,-0.90459 -23.10377,3.81314 -1.0035,0.94665 -2.30932,2.04199 -2.90181,2.43408 -5.354391,3.54337 -7.874672,13.45268 -5.658867,22.24969 1.592353,6.32183 7.800757,15.05073 11.338427,15.9416 0.60104,0.15136 2.10484,0.58457 3.34176,0.96268 5.15655,1.57631 9.59668,1.77174 13.99229,0.61587 z m -4.73187,-7.14207 c -0.3638,-0.11651 -1.86024,-0.22371 -3.32541,-0.23821 -13.09921,-0.12969 -20.154151,-19.20456 -9.70745,-26.24664 1.21899,-0.82172 1.2068,-0.80079 -0.38455,0.66026 -6.41955,5.89387 -4.39254,18.63439 3.6243,22.78005 7.92449,4.09792 16.4423,1.96181 22.1484,-5.55442 6.23389,-8.21143 0.72937,-20.63137 -9.81002,-22.1345 -3.1886,-0.45476 -7.77246,0.26113 -10.50534,1.64068 -2.00072,1.00997 -2.41258,0.99697 -0.5066,-0.016 12.77553,-6.78967 26.67815,2.90803 23.71325,16.54106 -1.37551,6.32477 -10.71124,14.02018 -15.24658,12.56771 z m -7.39867,-4.26276 c -4.77793,-1.4576 -4.19605,-8.07961 1.02037,-11.61224 1.89303,-1.28199 1.897,-1.44725 0.15499,-6.46422 -1.76298,-5.07734 -1.78372,-4.8958 0.6692,-5.85816 2.79661,-1.09722 3.19993,-0.67824 3.71166,3.85571 0.54983,4.87161 1.11799,5.9722 1.9189,3.71717 1.2114,-3.41078 7.22117,-7.63788 8.72331,-6.13574 1.44095,1.44095 0.34202,5.18356 -2.21798,7.55372 -2.0193,1.86957 -2.10064,2.0086 -1.17504,2.0086 3.9347,0 6.38587,4.65274 4.1158,7.81248 -2.91165,4.05279 -11.70356,6.71442 -16.92121,5.12268 z m 9.39529,-1.69883 c 10.93486,-2.99691 10.23921,-10.83945 -0.97531,-10.99536 -7.69936,-0.10705 -13.40214,6.80702 -9.01884,10.93445 1.45212,1.36735 5.14519,1.38986 9.99415,0.0609 z m -4.21089,-12.0862 c 0.30556,-0.4944 0.1436,-1.82633 -0.70735,-5.81726 -0.4304,-2.01856 -0.78255,-3.71929 -0.78255,-3.77939 0,-0.16302 -1.66873,0.42922 -2.05052,0.72773 -0.66777,0.52212 1.40978,8.3548 2.37931,8.97032 0.4817,0.30581 0.93384,0.26633 1.16111,-0.1014 z m 6.81015,-0.69307 c 3.36945,-1.81067 5.19782,-8.24056 1.96213,-6.90029 -1.22917,0.50914 -4.2356,3.45246 -4.88468,4.78216 -1.22782,2.5153 -1.02552,2.5607 1.28159,0.28764 1.21853,-1.20055 2.38913,-2.18282 2.60134,-2.18282 0.21221,0 -0.65726,1.04795 -1.93214,2.32877 -1.27489,1.28082 -2.23065,2.4161 -2.12391,2.52283 0.29889,0.29889 1.67088,-0.0726 3.09567,-0.83829 z m -26.946252,25.73158 c 0.190575,-3.05007 -0.05452,-4.59198 -0.669502,-4.2119 -0.446514,0.27596 -0.343268,7.27534 0.107316,7.27534 0.285607,0 0.414742,-0.70367 0.562186,-3.06344 z m 42.140912,1.99422 c 0.69205,-0.94104 0.75899,-1.18688 0.55837,-2.05052 -0.12537,-0.53971 -0.23079,-1.45424 -0.23426,-2.03228 -0.0144,-2.39546 -0.99957,-0.29449 -1.20622,2.57234 -0.21136,2.93239 -0.19022,2.9686 0.88211,1.51046 z m -43.876424,-4.1563 c -0.0083,-3.17563 -0.526372,-5.17541 -1.173219,-4.52857 -0.380243,0.38025 -0.189392,6.59796 0.221785,7.2255 0.805001,1.22858 0.960526,0.78773 0.951434,-2.69693 z m 46.454074,1.23571 c 0.22728,-0.43952 0.34882,-1.0021 0.27009,-1.25018 -0.0787,-0.24807 -0.16048,-1.21733 -0.18165,-2.15389 -0.0709,-3.13462 -1.55455,-0.86283 -1.55455,2.38028 0,2.61638 0.47208,2.94603 1.46611,1.02379 z m 1.9815,-3.34118 c 0.75942,-1.34562 0.81983,-1.59993 0.55442,-2.33389 -0.16382,-0.45305 -0.30214,-1.17246 -0.30737,-1.59869 -0.01,-0.77497 -0.01,-0.77497 -0.66015,0.0188 -0.58077,0.70853 -0.65077,1.04233 -0.65194,3.10886 -0.002,2.74132 -0.0199,2.72742 1.06504,0.80494 z m -51.484466,-2.683 c -0.04833,-3.3024 -0.411021,-5.33184 -0.952868,-5.33184 -0.402281,0 0.02342,7.10602 0.479479,8.00365 0.530483,1.04412 0.527983,1.05823 0.473389,-2.67181 z m -1.624789,-4.20732 c -0.05286,-3.94655 -0.51384,-8.17811 -0.918124,-8.42797 -0.414136,-0.25595 -0.135632,6.42329 0.461742,11.07376 0.308037,2.39803 0.508385,1.23655 0.456382,-2.64579 z"
             id="path1" /></g></g></g></g></svg>
